<?xml version="1.0" standalone="no"?>
<!DOCTYPE svg PUBLIC "-//W3C//DTD SVG 20010904//EN"
 "http://www.w3.org/TR/2001/REC-SVG-20010904/DTD/svg10.dtd">
<svg version="1.0" xmlns="http://www.w3.org/2000/svg"
 width="587.000000pt" height="587.000000pt" viewBox="0 0 587.000000 587.000000"
 preserveAspectRatio="xMidYMid meet">
<metadata>
Created by potrace 1.14, written by Peter Selinger 2001-2017
</metadata>
<g transform="translate(0.000000,587.000000) scale(0.100000,-0.100000)"
fill="#000000" stroke="none">
<path d="M2585 5714 c-499 -56 -1003 -267 -1414 -591 -117 -93 -353 -328 -445
-443 -314 -394 -509 -846 -588 -1360 -32 -209 -32 -581 0 -790 94 -609 347
-1125 761 -1553 436 -450 964 -725 1594 -830 115 -19 170 -21 427 -21 257 0
312 2 427 21 425 71 788 213 1131 444 690 463 1125 1170 1234 2009 7 52 12
199 12 325 0 233 -9 336 -45 525 -194 1026 -950 1864 -1953 2166 -140 42 -335
82 -483 98 -172 19 -489 19 -658 0z m1020 -1095 c184 -34 265 -152 219 -318
-6 -22 -5 -23 17 -18 66 18 172 29 242 24 89 -6 159 -35 191 -80 44 -60 14
-160 -80 -263 -48 -55 -56 -50 -19 11 16 26 25 55 25 83 0 36 -4 44 -26 54
-54 25 -139 -15 -319 -150 -114 -86 -147 -102 -207 -102 -47 0 -72 13 -128 66
l-36 34 -69 -53 c-123 -92 -242 -137 -359 -137 -76 1 -135 17 -168 47 -29 26
-58 91 -58 135 l0 37 -57 -29 c-87 -44 -173 -56 -253 -36 -83 21 -163 75 -214
147 -40 54 -42 56 -81 51 -95 -10 -214 92 -215 184 0 68 81 87 166 40 45 -25
49 -26 61 -10 7 10 13 21 13 25 0 13 64 46 100 53 46 8 140 -17 206 -53 l50
-29 22 49 c29 62 109 141 178 175 99 48 201 20 249 -70 11 -20 23 -36 26 -36
4 0 45 24 93 54 91 57 199 102 281 115 72 12 85 12 150 0z m-1703 -248 c40
-15 79 -62 76 -90 -6 -52 -102 -29 -143 33 -33 50 3 81 67 57z m2733 -531
c132 -15 296 -51 292 -64 -7 -20 -271 -146 -362 -171 -203 -58 -365 -35 -365
50 0 14 -2 25 -5 25 -2 0 -30 -11 -61 -25 -32 -14 -58 -24 -60 -22 -2 1 27 23
63 47 37 25 98 71 137 102 38 31 81 59 95 61 52 8 178 7 266 -3z m-1240 -156
c68 -24 161 -118 208 -209 127 -253 139 -449 32 -551 -42 -41 -101 -64 -162
-64 -141 0 -251 149 -313 425 -25 112 -44 141 -84 131 -42 -10 -48 -36 -31
-122 9 -42 25 -104 36 -138 10 -33 19 -66 19 -72 0 -9 -170 -155 -189 -162 -4
-1 -13 28 -20 65 -7 37 -28 109 -47 160 -34 90 -34 94 -23 159 23 133 132 298
231 351 98 52 239 63 343 27z m451 -229 c106 -64 142 -70 384 -67 120 2 247
-2 285 -8 74 -11 200 -66 200 -88 0 -6 -166 -160 -369 -341 -322 -288 -376
-332 -427 -350 -123 -46 -229 -138 -305 -268 -33 -57 -73 -96 -318 -306 l-279
-240 -19 23 c-10 12 -18 27 -18 34 1 6 44 45 97 86 183 142 464 400 437 400
-9 0 -388 -281 -522 -388 l-54 -42 -105 110 c-57 60 -147 142 -200 182 l-95
72 54 11 c191 39 338 237 338 456 l0 48 105 88 c58 48 109 89 113 91 4 1 16
-13 26 -32 28 -52 110 -131 163 -157 62 -30 183 -32 261 -6 74 26 151 100 188
179 27 59 29 72 29 183 0 112 -3 127 -36 222 l-36 102 21 20 c11 12 21 21 22
21 1 0 28 -16 60 -35z m-1264 -142 c131 -71 214 -270 225 -538 5 -116 3 -136
-16 -186 -28 -75 -88 -141 -157 -175 -46 -22 -69 -27 -128 -27 -146 1 -227 73
-296 262 -102 278 -63 570 88 658 59 35 95 43 170 38 44 -3 78 -13 114 -32z
m-1052 -320 c146 -47 541 -275 557 -320 31 -94 79 -195 118 -249 26 -36 43
-69 39 -73 -5 -5 -134 -115 -286 -245 -153 -130 -278 -240 -278 -244 0 -19 43
-161 66 -216 39 -92 127 -218 197 -281 120 -109 279 -181 423 -192 l73 -6 133
104 c146 114 580 474 808 672 l145 125 5 -87 c6 -97 17 -121 59 -121 44 0 51
16 51 115 0 168 51 298 157 404 92 92 162 125 263 125 90 0 139 -22 194 -85
53 -62 79 -140 73 -216 -11 -138 -75 -212 -370 -421 -120 -85 -244 -178 -274
-206 -31 -28 -107 -114 -168 -191 -154 -194 -226 -253 -376 -315 -149 -62
-226 -75 -439 -75 -166 0 -210 3 -296 23 -444 99 -698 288 -770 572 -27 105
-15 250 30 375 84 235 34 329 -300 556 -126 86 -179 143 -200 217 -38 129 39
257 168 281 57 10 108 4 198 -26z m925 -754 c118 -67 235 -160 339 -270 106
-112 105 -105 34 -160 l-38 -31 -96 101 c-106 112 -210 194 -342 272 -48 28
-89 53 -92 56 -10 10 85 84 103 79 10 -2 51 -23 92 -47z m493 -464 l21 -34
-47 -41 -47 -40 -27 32 c-15 18 -27 38 -27 43 0 10 87 75 101 75 3 0 15 -16
26 -35z m-1091 -661 c141 -94 381 -182 592 -218 125 -21 358 -21 482 0 51 9
138 32 191 50 53 19 99 34 101 34 9 0 47 -91 57 -137 29 -129 -47 -230 -220
-294 -134 -49 -254 -62 -485 -56 -279 8 -466 50 -648 145 -205 107 -307 291
-232 418 21 36 86 94 104 94 2 0 28 -16 58 -36z"/>
</g>
</svg>
